<svg id="visual" viewBox="0 0 540 960" width="540" height="960" xmlns="http://www.w3.org/2000/svg" xmlns:xlink="http://www.w3.org/1999/xlink" version="1.1"><path d="M0 762L18 750.3C36 738.7 72 715.3 108 709.3C144 703.3 180 714.7 216 737.2C252 759.7 288 793.3 324 792.5C360 791.7 396 756.3 432 740.7C468 725 504 729 522 731L540 733L540 961L522 961C504 961 468 961 432 961C396 961 360 961 324 961C288 961 252 961 216 961C180 961 144 961 108 961C72 961 36 961 18 961L0 961Z" fill="#FFFFFF" stroke-linecap="round" stroke-linejoin="miter"></path></svg>